<svg xmlns="http://www.w3.org/2000/svg" xmlns:xlink="http://www.w3.org/1999/xlink" width="122" height="645" viewBox="0 0 122 645">
  <svg xmlns="http://www.w3.org/2000/svg" width="122" height="77.16" viewBox="-6.27 -6.27 764.53 483.53" id="single-amex"><path fill="#2557D6" d="M554.594 130.608l-14.52 35.04h29.12l-14.6-35.04zM387.03 152.32c2.738-1.42 4.35-4.514 4.35-8.355 0-3.764-1.694-6.49-4.432-7.77-2.492-1.42-6.328-1.585-10.006-1.585h-25.978v19.523h25.63c4.106 0 7.537-.06 10.436-1.812zM54.142 130.61l-14.357 35.04h28.8l-14.443-35.04zm668.423 224.47h-40.742v-18.852H722.4c4.024 0 6.84-.525 8.538-2.177 1.47-1.356 2.494-3.334 2.494-5.73 0-2.563-1.023-4.597-2.578-5.814-1.53-1.342-3.76-1.953-7.434-1.953-19.81-.67-44.523.61-44.523-27.21 0-12.75 8.13-26.173 30.27-26.173h42.025v-17.493h-39.045c-11.783 0-20.344 2.81-26.406 7.18v-7.18h-57.75c-9.233 0-20.074 2.28-25.2 7.18v-7.18H499.654v7.18c-8.207-5.897-22.057-7.18-28.447-7.18H403.18v7.18c-6.492-6.26-20.935-7.18-29.734-7.18h-76.134l-17.42 18.775-16.318-18.775H149.847v122.675h111.586l17.95-19.076 16.91 19.076 68.78.06v-28.86h6.764c9.125.145 19.89-.223 29.387-4.31v33.106h56.73v-31.976h2.737c3.494 0 3.84.146 3.84 3.62v28.35h172.344c10.94 0 22.38-2.787 28.712-7.854v7.853h54.668c11.375 0 22.485-1.586 30.938-5.65v-22.854c-5.12 7.462-15.11 11.245-28.625 11.245zm-349.83-28.967H346.41V355.6H305.4l-25.978-29.1-26.997 29.102h-83.57v-87.914h84.856l25.955 28.818 26.834-28.818h67.414c16.743 0 35.555 4.617 35.555 28.963 0 24.423-18.296 29.464-36.74 29.464zm126.588-3.986c2.98 4.29 3.41 8.297 3.496 16.047v17.428h-21.184v-10.998c0-5.29.512-13.12-3.41-17.21-3.08-3.148-7.78-3.9-15.48-3.9H440.2v32.108h-21.197v-87.914h48.706c10.684 0 18.46.472 25.385 4.148 6.658 4.006 10.848 9.494 10.848 19.523-.002 14.03-9.4 21.19-14.953 23.387 4.694 1.725 8.532 4.818 10.333 7.38zm87.15-36.258H537.07v15.98h48.196v17.94H537.07v17.49l49.403.08v18.24H516.06v-87.914h70.413v18.182zm54.213 69.73h-41.09v-18.853h40.926c4.002 0 6.84-.527 8.62-2.178 1.448-1.36 2.49-3.337 2.49-5.73 0-2.565-1.128-4.6-2.573-5.82-1.617-1.34-3.844-1.947-7.516-1.947-19.73-.673-44.44.606-44.44-27.212 0-12.75 8.048-26.173 30.165-26.173h42.296v18.71h-38.703c-3.836 0-6.33.145-8.45 1.59-2.314 1.424-3.17 3.536-3.17 6.323 0 3.317 1.962 5.575 4.614 6.55 2.228.77 4.617.996 8.21.996l11.36.308c11.45.274 19.313 2.25 24.092 7.07 4.104 4.23 6.31 9.577 6.31 18.624 0 18.913-11.868 27.742-33.145 27.742zm110.506-11.763zm-274.13-56.55c-2.55-1.51-6.312-1.59-10.067-1.59h-25.98v19.745h25.632c4.104 0 7.594-.144 10.414-1.812 2.736-1.645 4.373-4.677 4.373-8.437s-1.637-6.482-4.37-7.906zm235.722-1.59c-3.838 0-6.39.144-8.537 1.587-2.227 1.426-3.08 3.537-3.08 6.326 0 3.316 1.878 5.573 4.61 6.55 2.23.77 4.616.996 8.13.996l11.437.303c11.537.283 19.242 2.26 23.938 7.08.855.666 1.37 1.42 1.957 2.172V285.7h-38.455l-.002-.003zm-339.314 0h-27.51v22.39h27.266c8.105 0 13.146-4.006 13.15-11.61-.004-7.69-5.29-10.78-12.906-10.78zm-183.598 0v15.983h46.315v17.94h-46.315v17.49h51.87l24.1-25.792-23.076-25.62h-52.894zm135.45 61.478v-70.482l-32.392 34.673 32.39 35.81zM191.65 206.025v15.147h176.26l-.082-32.046h3.41c2.39.083 3.085.302 3.085 4.23v27.817h91.164v-7.46c7.352 3.923 18.788 7.46 33.837 7.46h38.353l8.21-19.522h18.196l8.026 19.523h73.905V202.63l11.19 18.543h59.226V98.59h-58.61v14.477l-8.207-14.477H589.47v14.477l-7.537-14.477h-81.24c-13.6 0-25.55 1.89-35.207 7.158V98.59h-56.064v7.158c-6.146-5.43-14.52-7.158-23.826-7.158H180.784l-13.742 31.662-14.114-31.662h-64.51v14.477l-7.09-14.477H26.313L.763 156.874v46.62l37.78-87.893h31.345l35.88 83.22V115.6h34.435l27.61 59.626 25.365-59.625h35.126v87.896H206.68l-.08-68.837-30.593 68.836h-18.524l-30.67-68.898v68.898H83.898L75.79 183.89H31.866l-8.19 19.606H.762v17.682h36.05l8.127-19.523h18.196l8.106 19.523h70.925V206.25l6.33 14.99h36.82l6.33-15.215zm277.75-80.177c6.82-7.016 17.5-10.25 32.04-10.25h20.423v18.832h-19.996c-7.696 0-12.047 1.14-16.233 5.208-3.6 3.7-6.066 10.696-6.066 19.908 0 9.417 1.88 16.206 5.8 20.64 3.248 3.48 9.152 4.534 14.705 4.534h9.478l29.734-69.12h31.61l35.72 83.134V115.6h32.123l37.085 61.214V115.6h21.61v87.89H667.54l-39.99-65.966v65.968h-42.967l-8.208-19.605h-43.827l-7.966 19.604h-24.69c-10.253 0-23.237-2.257-30.59-9.72-7.415-7.463-11.27-17.57-11.27-33.554-.004-13.038 2.3-24.954 11.37-34.37zm-43.395-10.25h21.526v87.894h-21.525V115.6zm-97.055 0h48.526c10.78 0 18.727.285 25.547 4.21 6.674 3.926 10.676 9.658 10.676 19.46 0 14.015-9.395 21.254-14.866 23.43 4.614 1.75 8.56 4.84 10.438 7.4 2.98 4.372 3.492 8.277 3.492 16.126v17.267h-21.28l-.08-11.083c0-5.29.51-12.897-3.33-17.123-3.08-3.09-7.78-3.763-15.378-3.763H350.05v31.97h-21.098V115.6zm-85.048 0h70.48V133.9H265v15.844h48.193v18.017H265v17.554h49.38v18.177H243.9V115.6z"/></svg>
  <svg xmlns="http://www.w3.org/2000/svg" width="122" height="77.36" viewBox="-6.25 -6.25 762.5 483.5" id="single-jcb" y="78"><path fill="#FFF" d="M617.242 346.766c0 41.615-33.73 75.36-75.357 75.36H132.76v-297.88c0-41.627 33.73-75.372 75.363-75.372h409.12v297.892z"/><linearGradient id="bba" gradientUnits="userSpaceOnUse" x1="824.742" y1="333.781" x2="825.742" y2="333.781" gradientTransform="matrix(132.874 0 0 -323.023 -109129.531 108054.602)"><stop offset="0" stop-color="#007B40"/><stop offset="1" stop-color="#55B330"/></linearGradient><path fill="url(#bba)" d="M483.86 242.045c11.686.254 23.44-.516 35.078.4 11.787 2.2 14.627 20.043 4.156 25.887-7.145 3.85-15.633 1.434-23.38 2.113H483.86v-28.4zm41.834-32.145c2.596 9.164-6.238 17.392-15.064 16.13h-26.77c.188-8.642-.367-18.022.273-26.21 10.723.303 21.547-.615 32.21.48 4.58 1.152 8.413 4.918 9.35 9.6zM590.12 73.997c.497 17.5.07 35.927.214 53.783-.033 72.596.07 145.195-.057 217.79-.47 27.206-24.582 50.846-51.6 51.39-27.045.11-54.094.016-81.143.046v-109.75c29.47-.153 58.957.308 88.416-.23 13.666-.86 28.635-9.876 29.27-24.915 1.61-15.1-12.63-25.55-26.15-27.2-5.198-.134-5.046-1.514 0-2.116 12.894-2.787 23.02-16.133 19.226-29.5-3.234-14.057-18.77-19.498-31.695-19.47-26.35-.18-52.707-.026-79.06-.078.17-20.49-.356-41 .282-61.474C459.91 95.556 484.63 73.524 511.27 74l78.85-.003z"/><linearGradient id="bbb" gradientUnits="userSpaceOnUse" x1="824.755" y1="333.782" x2="825.748" y2="333.782" gradientTransform="matrix(133.431 0 0 -323.02 -109887.688 108053.82)"><stop offset="0" stop-color="#1D2970"/><stop offset="1" stop-color="#006DBA"/></linearGradient><path fill="url(#bbb)" d="M159.742 125.04c.673-27.163 24.888-50.61 51.872-51.007 26.945-.083 53.894-.012 80.84-.036-.075 90.885.145 181.776-.112 272.657-1.038 26.834-24.99 49.834-51.68 50.31-26.995.097-53.994.013-80.99.04V283.55c26.222 6.196 53.72 8.833 80.473 4.724 15.99-2.574 33.487-10.426 38.9-27.016 3.985-14.19 1.742-29.126 2.335-43.69V183.74h-46.297c-.208 22.37.426 44.78-.335 67.125-1.248 13.734-14.85 22.46-27.802 21.994-16.064.17-47.897-11.64-47.897-11.64-.08-41.916.464-94.407.69-136.18z"/><linearGradient id="bbc" gradientUnits="userSpaceOnUse" x1="824.742" y1="333.781" x2="825.741" y2="333.781" gradientTransform="matrix(132.958 0 0 -323.028 -109347.922 108056.266)"><stop offset="0" stop-color="#6E2B2F"/><stop offset="1" stop-color="#E30138"/></linearGradient><path fill="url(#bbc)" d="M309.72 197.39c-2.436.517-.49-8.3-1.113-11.646.166-21.15-.346-42.323.284-63.458 2.084-26.83 26.993-48.916 53.74-48.288h78.767c-.074 90.885.145 181.775-.11 272.657-1.04 26.834-24.993 49.833-51.683 50.31-26.998.1-53.998.014-80.997.04V272.708c18.44 15.13 43.5 17.484 66.472 17.525 17.317-.006 34.534-2.676 51.352-6.67V260.79c-18.952 9.446-41.233 15.446-62.243 10.02-14.657-3.65-25.295-17.814-25.058-32.938-1.698-15.73 7.522-32.335 22.98-37.01 19.19-6.01 40.107-1.414 58.095 6.397 3.855 2.016 7.766 4.52 6.225-1.923v-17.9c-30.086-7.157-62.104-9.79-92.33-2.004-8.748 2.468-17.272 6.21-24.38 11.956z"/></svg>
  <svg xmlns="http://www.w3.org/2000/svg" width="122" height="77.36" viewBox="-6.25 -6.25 762.5 483.5" id="single-mastercard" y="156"><path fill="#D9222A" d="M434.008 235.5c0 99.142-80.37 179.504-179.508 179.504-99.137 0-179.5-80.362-179.5-179.504 0-99.133 80.362-179.504 179.5-179.504 99.137 0 179.508 80.37 179.508 179.504"/><path fill="#EE9F2D" d="M495.49 55.996c-46.378 0-88.64 17.596-120.5 46.467-6.486 5.883-12.545 12.238-18.124 18.996h36.267c4.958 6.027 9.525 12.37 13.684 19.01h-63.634c-3.813 6.104-7.274 12.446-10.342 19.01h84.315c2.88 6.157 5.42 12.494 7.6 19.002h-99.512c-2.075 6.19-3.82 12.53-5.217 19.008h109.94c2.64 12.25 4.043 24.968 4.043 38.01 0 19.933-3.255 39.11-9.255 57.02H325.24c2.176 6.512 4.718 12.854 7.597 19.008h84.316c-3.074 6.563-6.528 12.904-10.346 19.012h-63.625c4.154 6.63 8.73 12.98 13.684 18.996h36.26c-5.572 6.77-11.635 13.134-18.13 19.013C406.853 397.413 449.112 415 495.49 415c99.14 0 179.51-80.36 179.51-179.503 0-99.13-80.37-179.505-179.51-179.505"/><path d="M651.074 335.56c0-3.2 2.592-5.802 5.796-5.802s5.796 2.6 5.796 5.8c0 3.2-2.592 5.8-5.796 5.8s-5.796-2.6-5.796-5.8zm5.796 4.407c2.434 0 4.408-1.975 4.408-4.408 0-2.44-1.975-4.406-4.408-4.406-2.438 0-4.404 1.967-4.404 4.404 0 2.432 1.967 4.407 4.404 4.407zm-.783-1.86H654.9v-5.095h2.15c.45 0 .908 0 1.304.254.413.28.646.77.646 1.28 0 .57-.338 1.103-.884 1.312l.938 2.25h-1.316l-.78-2.017h-.87v2.02zm0-2.89h.658c.246 0 .505.02.726-.1.197-.125.298-.36.298-.584 0-.195-.12-.42-.288-.517-.21-.13-.538-.1-.76-.1h-.633v1.3zm-443.5-80.063c-2.046-.238-2.945-.3-4.35-.3-11.046 0-16.638 3.787-16.638 11.267 0 4.614 2.727 7.547 6.985 7.547 7.94 0 13.66-7.558 14-18.512zm14.17 32.996h-16.145l.37-7.676c-4.925 6.066-11.495 8.95-20.425 8.95-10.563 0-17.804-8.25-17.804-20.23 0-18.023 12.596-28.54 34.217-28.54 2.208 0 5.042.2 7.94.57.605-2.44.764-3.487.764-4.8 0-4.908-3.396-6.737-12.5-6.737-9.533-.108-17.396 2.27-20.625 3.333.202-1.23 2.7-16.66 2.7-16.66 9.71-2.845 16.114-3.916 23.323-3.916 16.732 0 25.596 7.513 25.58 21.712.032 3.805-.598 8.5-1.58 14.67-1.69 10.733-5.32 33.72-5.816 39.324zm-62.157 0h-19.487l11.162-69.996-24.925 69.996h-13.28l-1.64-69.596-11.734 69.596H86.454l15.237-91.055h28.023l1.7 50.967 17.092-50.967h31.167L164.6 288.15m354.974-32.996c-2.037-.238-2.94-.3-4.342-.3-11.04 0-16.633 3.787-16.633 11.267 0 4.614 2.723 7.547 6.98 7.547 7.94 0 13.664-7.558 13.993-18.512zm14.184 32.996h-16.146l.366-7.676c-4.925 6.066-11.5 8.95-20.42 8.95-10.567 0-17.8-8.25-17.8-20.23 0-18.023 12.587-28.54 34.212-28.54 2.208 0 5.037.2 7.933.57.604-2.44.763-3.487.763-4.8 0-4.908-3.392-6.737-12.496-6.737-9.533-.108-17.387 2.27-20.63 3.333.205-1.23 2.71-16.66 2.71-16.66 9.712-2.845 16.112-3.916 23.313-3.916 16.74 0 25.604 7.513 25.587 21.712.033 3.805-.596 8.5-1.58 14.67-1.683 10.733-5.32 33.72-5.812 39.324zm-220.392-1.125c-5.333 1.68-9.49 2.4-14 2.4-9.962 0-15.4-5.726-15.4-16.268-.14-3.27 1.434-11.88 2.672-19.737 1.125-6.917 8.45-50.53 8.45-50.53h19.37l-2.263 11.21h11.7l-2.642 17.795H309.51c-2.25 14.083-5.453 31.625-5.49 33.95 0 3.816 2.037 5.483 6.67 5.483 2.222 0 3.942-.226 5.255-.7l-2.58 16.397m59.393-.6c-6.654 2.034-13.075 3.017-19.88 3-21.683-.02-32.986-11.346-32.986-33.033 0-25.313 14.38-43.946 33.9-43.946 15.97 0 26.17 10.433 26.17 26.796 0 5.43-.7 10.73-2.388 18.212H339c-1.305 10.74 5.57 15.217 16.837 15.217 6.934 0 13.188-1.427 20.142-4.66l-3.223 18.416zm-10.888-43.9c.108-1.542 2.055-13.217-9.013-13.217-6.17 0-10.583 4.704-12.38 13.217h21.393zm-123.424-5.017c0 9.367 4.542 15.826 14.842 20.676 7.892 3.708 9.112 4.81 9.112 8.17 0 4.617-3.48 6.7-11.19 6.7-5.814 0-11.222-.907-17.46-2.92 0 0-2.562 16.32-2.68 17.1 4.43.967 8.38 1.862 20.28 2.19 20.563 0 30.06-7.828 30.06-24.75 0-10.174-3.977-16.145-13.738-20.633-8.17-3.75-9.108-4.585-9.108-8.043 0-4.004 3.237-6.046 9.537-6.046 3.827 0 9.05.41 14 1.113l2.777-17.175c-5.046-.8-12.696-1.442-17.15-1.442-21.8 0-29.347 11.388-29.28 25.063m229.086-23.118c5.412 0 10.458 1.42 17.412 4.92l3.188-19.762c-2.854-1.12-12.904-7.7-21.417-7.7-13.04 0-24.066 6.47-31.82 17.15-11.31-3.746-15.958 3.825-21.658 11.367l-5.063 1.18c.383-2.484.73-4.95.612-7.447H390.89c-2.445 22.917-6.778 46.128-10.17 69.075l-.884 4.976h19.496c3.254-21.14 5.037-34.68 6.12-43.84l7.342-4.084c1.097-4.078 4.53-5.458 11.417-5.29-.897 4.832-1.38 9.915-1.38 15.183 0 24.224 13.07 39.307 34.05 39.307 5.403 0 10.04-.712 17.22-2.658l3.43-20.76c-6.46 3.18-11.76 4.676-16.56 4.676-11.33 0-18.183-8.363-18.183-22.184 0-20.05 10.197-34.108 24.747-34.108"/><path fill="#FFF" d="M170.208 282.742h-19.49l11.17-69.988-24.926 69.988H123.68l-1.643-69.588-11.733 69.588h-18.24L107.3 191.7h28.02l.79 56.362 18.903-56.362h30.267l-15.072 91.042"/><path d="M632.52 197.096l-4.32 26.31c-5.33-7.014-11.054-12.09-18.612-12.09-9.833 0-18.783 7.456-24.642 18.426-8.158-1.692-16.596-4.563-16.596-4.563l-.004.065c.658-6.134.92-9.875.862-11.146h-17.9c-2.438 22.916-6.77 46.127-10.158 69.074l-.892 4.976h19.492c2.633-17.095 4.65-31.29 6.133-42.55 6.658-6.016 9.992-11.266 16.72-10.916-2.978 7.204-4.724 15.504-4.724 24.017 0 18.515 9.364 30.727 23.53 30.727 7.143 0 12.62-2.462 17.968-8.17l-.914 6.883H636.9l14.842-91.043h-19.22zm-24.37 73.94c-6.633 0-9.983-4.907-9.983-14.595 0-14.552 6.27-24.873 15.112-24.873 6.694 0 10.32 5.104 10.32 14.51 0 14.678-6.37 24.96-15.45 24.96z"/><path fill="#FFF" d="M218.192 249.758c-2.042-.236-2.946-.3-4.346-.3-11.046 0-16.634 3.788-16.634 11.267 0 4.604 2.73 7.547 6.98 7.547 7.946 0 13.667-7.56 14-18.514zm14.178 32.984h-16.146l.367-7.663c-4.92 6.052-11.5 8.95-20.42 8.95-10.566 0-17.804-8.25-17.804-20.23 0-18.034 12.592-28.543 34.217-28.543 2.208 0 5.042.2 7.938.57.605-2.44.764-3.486.764-4.807 0-4.908-3.392-6.728-12.496-6.728-9.537-.108-17.396 2.27-20.63 3.32.205-1.224 2.7-16.636 2.7-16.636 9.71-2.858 16.12-3.93 23.32-3.93 16.738 0 25.605 7.518 25.59 21.705.028 3.823-.605 8.515-1.585 14.677-1.687 10.724-5.32 33.724-5.812 39.316zm261.375-88.592l-3.19 19.767c-6.95-3.496-12-4.92-17.41-4.92-14.55 0-24.75 14.058-24.75 34.107 0 13.82 6.86 22.18 18.185 22.18 4.8 0 10.096-1.492 16.554-4.675l-3.42 20.75c-7.185 1.956-11.817 2.67-17.226 2.67-20.976 0-34.05-15.085-34.05-39.31 0-32.55 18.058-55.3 43.887-55.3 8.508 0 18.562 3.61 21.42 4.73m31.443 55.608c-2.042-.236-2.942-.3-4.347-.3-11.04 0-16.63 3.788-16.63 11.267 0 4.604 2.73 7.547 6.982 7.547 7.94 0 13.664-7.56 13.998-18.514zm14.178 32.984h-16.15l.37-7.663c-4.924 6.052-11.5 8.95-20.42 8.95-10.563 0-17.804-8.25-17.804-20.23 0-18.034 12.596-28.543 34.212-28.543 2.213 0 5.042.2 7.942.57.6-2.44.762-3.486.762-4.807 0-4.908-3.392-6.728-12.495-6.728-9.533-.108-17.396 2.27-20.63 3.32.204-1.224 2.704-16.636 2.704-16.636 9.71-2.858 16.117-3.93 23.317-3.93 16.74 0 25.604 7.518 25.583 21.705.033 3.823-.596 8.515-1.58 14.677-1.682 10.724-5.323 33.724-5.81 39.316zm-220.39-1.122c-5.34 1.68-9.497 2.41-14 2.41-9.963 0-15.4-5.726-15.4-16.268-.138-3.28 1.44-11.88 2.675-19.737 1.12-6.926 8.447-50.534 8.447-50.534h19.367l-2.26 11.214h9.942L325.1 226.49h-9.976c-2.25 14.093-5.463 31.622-5.496 33.95 0 3.83 2.04 5.484 6.67 5.484 2.222 0 3.94-.216 5.255-.69l-2.578 16.387m59.39-.59c-6.65 2.032-13.08 3.01-19.88 3-21.682-.022-32.985-11.347-32.985-33.034 0-25.32 14.38-43.95 33.9-43.95 15.97 0 26.17 10.43 26.17 26.8 0 5.434-.7 10.733-2.383 18.213h-38.575c-1.305 10.74 5.57 15.22 16.837 15.22 6.93 0 13.186-1.435 20.136-4.677l-3.22 18.425zm-10.89-43.913c.116-1.538 2.06-13.217-9.013-13.217-6.167 0-10.58 4.717-12.375 13.217h21.388zm-123.42-5.005c0 9.366 4.54 15.817 14.84 20.675 7.893 3.71 9.113 4.813 9.113 8.172 0 4.614-3.483 6.697-11.188 6.697-5.816 0-11.225-.908-17.467-2.92 0 0-2.554 16.32-2.67 17.1 4.42.967 8.374 1.85 20.274 2.19 20.566 0 30.06-7.828 30.06-24.745 0-10.18-3.972-16.15-13.738-20.637-8.17-3.76-9.115-4.584-9.115-8.046 0-4 3.246-6.06 9.542-6.06 3.82 0 9.046.42 14.004 1.125l2.77-17.18c-5.04-.8-12.69-1.44-17.144-1.44-21.804 0-29.346 11.38-29.283 25.066m398.455 50.632H624.07l.917-6.893c-5.346 5.715-10.825 8.18-17.967 8.18-14.167 0-23.53-12.215-23.53-30.727 0-24.63 14.522-45.392 31.71-45.392 7.558 0 13.278 3.088 18.603 10.097l4.325-26.308h19.22l-14.84 91.04zm-28.746-17.11c9.075 0 15.45-10.282 15.45-24.952 0-9.405-3.63-14.51-10.325-14.51-8.837 0-15.116 10.317-15.116 24.876 0 9.687 3.36 14.587 9.993 14.587zm-56.842-56.928c-2.44 22.917-6.774 46.13-10.162 69.063l-.892 4.976h19.49c6.973-45.275 8.66-54.117 19.59-53.01 1.74-9.266 4.982-17.382 7.4-21.478-8.164-1.7-12.722 2.913-18.69 11.675.472-3.788 1.334-7.467 1.163-11.225h-17.9m-160.42 0c-2.446 22.916-6.78 46.13-10.167 69.062l-.888 4.976h19.5c6.963-45.275 8.646-54.117 19.57-53.01 1.75-9.266 4.992-17.382 7.4-21.478-8.154-1.7-12.717 2.913-18.68 11.675.472-3.788 1.326-7.467 1.163-11.225H396.5m254.567 68.24c0-3.212 2.596-5.8 5.796-5.8 3.204 0 5.796 2.588 5.796 5.8 0 3.196-2.594 5.797-5.798 5.797-3.2 0-5.796-2.6-5.796-5.797zm5.796 4.405c2.438 0 4.404-1.975 4.404-4.404 0-2.433-1.967-4.408-4.404-4.408-2.434 0-4.408 1.976-4.408 4.408 0 2.43 1.974 4.404 4.408 4.404zm-.784-1.87h-1.19v-5.083h2.153c.446 0 .91.008 1.296.254.416.285.653.768.653 1.276 0 .575-.337 1.112-.888 1.317l.942 2.236h-1.32l-.78-2.01h-.87v2.01zm0-2.88h.65c.247 0 .514.018.73-.1.196-.125.296-.362.296-.588 0-.188-.116-.412-.287-.524-.205-.116-.543-.083-.764-.083h-.63v1.295h.002z"/></svg>
  <svg xmlns="http://www.w3.org/2000/svg" width="122" height="79.08" viewBox="-6.5 -6.5 793 514" id="single-paypal" y="234"><path fill="#003087" d="M168.38 169.853c-8.4-5.774-19.36-8.668-32.88-8.668H83.152c-4.145 0-6.435 2.073-6.87 6.215L55.018 300.883c-.22 1.31.107 2.51.98 3.6.87 1.092 1.963 1.635 3.272 1.635h24.864c4.36 0 6.758-2.068 7.198-6.215l5.888-35.986c.215-1.744.982-3.162 2.29-4.254 1.31-1.09 2.945-1.803 4.908-2.13 1.963-.324 3.814-.487 5.562-.487 1.743 0 3.814.11 6.217.327 2.397.218 3.925.324 4.58.324 18.756 0 33.478-5.285 44.167-15.866 10.684-10.575 16.032-25.24 16.032-44.002 0-12.867-4.202-22.19-12.597-27.974zm-26.99 40.08c-1.095 7.635-3.927 12.65-8.507 15.05-4.58 2.402-11.124 3.597-19.63 3.597l-10.796.327 5.563-35.007c.434-2.397 1.85-3.597 4.252-3.597h6.218c8.72 0 15.05 1.257 18.975 3.76 3.924 2.51 5.233 7.802 3.924 15.87z"/><path fill="#009CDE" d="M720.794 161.185h-24.208c-2.405 0-3.82 1.2-4.253 3.6l-21.267 136.1-.328.653c0 1.096.437 2.127 1.31 3.11.87.98 1.964 1.47 3.27 1.47h21.596c4.138 0 6.43-2.068 6.87-6.215L725.05 166.09v-.325c0-3.053-1.423-4.58-4.256-4.58z"/><path fill="#003087" d="M428.31 213.856c0-1.088-.44-2.126-1.306-3.106-.875-.98-1.858-1.474-2.945-1.474h-25.194c-2.404 0-4.366 1.096-5.89 3.27l-34.678 51.04-14.396-49.074c-1.095-3.487-3.492-5.236-7.197-5.236h-24.54c-1.094 0-2.075.492-2.942 1.474-.875.98-1.31 2.02-1.31 3.106 0 .44 2.128 6.87 6.38 19.303s8.832 25.847 13.74 40.243c4.908 14.393 7.47 22.03 7.688 22.898-17.885 24.43-26.825 37.518-26.825 39.26 0 2.838 1.416 4.254 4.253 4.254h25.192c2.398 0 4.36-1.088 5.89-3.27l83.426-120.4c.434-.432.652-1.192.652-2.29z"/><path fill="#009CDE" d="M662.887 209.276H638.02c-3.054 0-4.903 3.6-5.557 10.798-5.677-8.72-16.03-13.088-31.083-13.088-15.704 0-29.066 5.89-40.077 17.668-11.016 11.778-16.52 25.63-16.52 41.55 0 12.872 3.76 23.122 11.284 30.753 7.525 7.64 17.612 11.45 30.266 11.45 6.323 0 12.757-1.31 19.3-3.925 6.544-2.617 11.665-6.105 15.38-10.47 0 .22-.223 1.2-.656 2.944-.44 1.748-.655 3.06-.655 3.926 0 3.494 1.414 5.234 4.254 5.234h22.576c4.138 0 6.54-2.068 7.194-6.215l13.415-85.39c.217-1.307-.11-2.505-.98-3.597-.875-1.09-1.963-1.636-3.272-1.636zm-42.694 64.453c-5.562 5.45-12.268 8.176-20.12 8.176-6.328 0-11.45-1.742-15.377-5.234-3.927-3.484-5.89-8.283-5.89-14.395 0-8.065 2.726-14.886 8.18-20.447 5.447-5.56 12.214-8.342 20.285-8.342 6.103 0 11.175 1.8 15.214 5.397 4.032 3.6 6.054 8.563 6.054 14.89 0 7.85-2.783 14.504-8.344 19.954z"/><path fill="#003087" d="M291.23 209.276h-24.864c-3.058 0-4.908 3.6-5.563 10.798-5.89-8.72-16.25-13.088-31.08-13.088-15.705 0-29.066 5.89-40.08 17.668-11.015 11.778-16.52 25.63-16.52 41.55 0 12.872 3.763 23.122 11.288 30.753 7.527 7.64 17.61 11.45 30.264 11.45 6.104 0 12.433-1.31 18.975-3.925 6.542-2.617 11.777-6.105 15.703-10.47-.875 2.618-1.31 4.91-1.31 6.87 0 3.494 1.418 5.234 4.254 5.234h22.574c4.14 0 6.544-2.068 7.2-6.215l13.412-85.39c.216-1.307-.11-2.505-.98-3.597-.873-1.09-1.963-1.636-3.27-1.636zm-42.695 64.615c-5.563 5.35-12.382 8.018-20.447 8.018-6.33 0-11.4-1.742-15.214-5.234-3.82-3.484-5.726-8.283-5.726-14.395 0-8.066 2.725-14.887 8.18-20.448 5.45-5.56 12.21-8.342 20.284-8.342 6.104 0 11.175 1.8 15.214 5.397 4.032 3.6 6.052 8.563 6.052 14.89 0 8.07-2.78 14.778-8.343 20.116z"/><path fill="#009CDE" d="M540.036 169.853c-8.398-5.774-19.356-8.668-32.88-8.668H455.14c-4.365 0-6.765 2.073-7.198 6.215l-21.265 133.483c-.22 1.31.106 2.51.98 3.6.867 1.092 1.963 1.635 3.272 1.635h26.825c2.617 0 4.36-1.416 5.235-4.252l5.89-37.95c.216-1.743.98-3.16 2.29-4.253 1.31-1.09 2.943-1.803 4.908-2.13 1.962-.324 3.813-.487 5.562-.487 1.743 0 3.814.11 6.214.327 2.4.218 3.93.324 4.58.324 18.76 0 33.48-5.285 44.168-15.866 10.687-10.575 16.03-25.24 16.03-44.002.002-12.867-4.2-22.19-12.594-27.974zm-33.534 53.82c-4.8 3.27-11.997 4.906-21.592 4.906l-10.47.325 5.563-35.007c.432-2.398 1.85-3.598 4.252-3.598h5.887c4.797 0 8.614.218 11.454.653 2.83.44 5.56 1.8 8.178 4.09 2.62 2.29 3.926 5.617 3.926 9.978 0 9.163-2.402 15.377-7.198 18.65z"/></svg>
  <svg xmlns="http://www.w3.org/2000/svg" width="122" height="77.36" viewBox="-6.25 -6.25 762.5 483.5" id="single-visa" y="312"><path fill="#0E4595" d="M278.198 334.228l33.36-195.763h53.358l-33.384 195.763h-53.334zm246.11-191.54c-10.57-3.967-27.136-8.223-47.823-8.223-52.725 0-89.863 26.55-90.18 64.604-.297 28.127 26.514 43.82 46.754 53.183 20.77 9.597 27.75 15.716 27.65 24.283-.133 13.123-16.586 19.116-31.924 19.116-21.355 0-32.7-2.967-50.225-10.274l-6.876-3.113-7.488 43.823c12.463 5.466 35.508 10.2 59.438 10.445 56.09 0 92.502-26.248 92.916-66.884.2-22.27-14.015-39.216-44.8-53.188-18.65-9.056-30.072-15.1-29.95-24.27 0-8.136 9.667-16.837 30.558-16.837 17.447-.27 30.088 3.534 39.936 7.5l4.78 2.26 7.233-42.43m137.308-4.22h-41.23c-12.773 0-22.332 3.485-27.94 16.233L513.2 334.1h56.03s9.16-24.12 11.233-29.418c6.123 0 60.555.084 68.336.084 1.594 6.854 6.49 29.334 6.49 29.334H704.8l-43.188-195.636zM596.198 264.87c4.414-11.28 21.26-54.724 21.26-54.724-.314.52 4.38-11.334 7.074-18.684l3.607 16.878s10.215 46.73 12.35 56.527H596.2zM232.903 138.464l-52.24 133.496-5.564-27.13c-9.728-31.273-40.027-65.156-73.9-82.12l47.767 171.205 56.455-.064 84.004-195.384h-56.524"/><path fill="#F2AE14" d="M131.92 138.464H45.88l-.683 4.073c66.94 16.204 111.232 55.363 129.618 102.415l-18.71-89.96c-3.228-12.396-12.596-16.096-24.185-16.528"/></svg>
  <svg xmlns="http://www.w3.org/2000/svg" width="122" height="79.08" viewBox="-6.5 -6.5 793 514" id="single-discover" y="390"><path fill="#F47216" d="M409.412 197.758c30.938 0 56.02 23.58 56.02 52.71v.032c0 29.13-25.082 52.742-56.02 52.742-30.94 0-56.022-23.613-56.022-52.742v-.033c0-29.13 25.08-52.71 56.022-52.71z"/><path d="M321.433 198.438c8.836 0 16.247 1.785 25.27 6.09v22.752c-8.545-7.863-15.956-11.154-25.758-11.154-19.265 0-34.413 15.015-34.413 34.05 0 20.075 14.68 34.196 35.368 34.196 9.313 0 16.586-3.12 24.802-10.856v22.764c-9.343 4.14-16.912 5.775-25.757 5.775-31.277 0-55.58-22.597-55.58-51.737-.002-28.828 24.95-51.88 56.068-51.88zm-97.113.626c11.546 0 22.11 3.72 30.942 10.994l-10.748 13.248c-5.35-5.646-10.41-8.027-16.563-8.027-8.852 0-15.3 4.743-15.3 10.986 0 5.354 3.62 8.188 15.945 12.482 23.364 8.042 30.29 15.175 30.29 30.925 0 19.193-14.977 32.554-36.32 32.554-15.63 0-26.993-5.796-36.457-18.872l13.268-12.03c4.73 8.608 12.622 13.222 22.42 13.222 9.163 0 15.947-5.95 15.947-13.984 0-4.164-2.056-7.733-6.158-10.258-2.066-1.195-6.158-2.977-14.2-5.646-19.29-6.54-25.91-13.528-25.91-27.187 0-16.226 14.214-28.412 32.846-28.412zm234.723 1.73h22.436l28.082 66.59 28.447-66.59h22.265L514.783 302.48H503.73m-345.9-101.535h20.54v99.143h-20.54m411.733-99.143h58.252v16.8H590.09v22.005h36.336v16.79H590.09v26.763h37.725v16.785h-58.252m115.593-41.766c15.47-2.965 23.984-12.926 23.984-28.105 0-18.562-13.576-29.27-37.266-29.27H641.42v99.142h20.516v-39.83h2.68l28.43 39.827h25.26l-33.15-41.766zm-17.218-11.736h-6.002V216.56h6.326c12.79 0 19.744 5.05 19.744 14.698.002 9.966-6.95 15.328-20.068 15.328zm-576.093-45.64h-30.15v99.142H91.69c15.946 0 27.465-3.543 37.573-11.445 12.015-9.36 19.118-23.467 19.118-38.057 0-29.26-23.22-49.64-56.532-49.64zm23.997 74.48c-6.454 5.482-14.837 7.877-28.108 7.877H82.22v-65.56h5.513c13.27 0 21.323 2.24 28.108 8.02 7.106 5.955 11.38 15.182 11.38 24.68 0 9.514-4.274 19.025-11.377 24.98z"/></svg>
  <svg xmlns="http://www.w3.org/2000/svg" width="122" height="77.36" viewBox="-6.25 -6.25 762.5 483.5" id="single-diners" y="468"><path fill="#0079BE" d="M584.934 236.947c0-99.416-82.98-168.133-173.896-168.1h-78.24c-92.004-.033-167.73 68.705-167.73 168.1 0 90.93 75.728 165.64 167.73 165.203h78.24c90.913.437 173.896-74.293 173.896-165.203z"/><path fill="#FFF" d="M333.28 82.932c-84.068.026-152.192 68.308-152.214 152.58.02 84.258 68.145 152.532 152.215 152.56 84.09-.027 152.23-68.302 152.24-152.56-.01-84.274-68.15-152.554-152.24-152.58z"/><path fill="#0079BE" d="M237.066 235.098c.08-41.18 25.747-76.296 61.94-90.25v180.48c-36.193-13.947-61.86-49.045-61.94-90.23zm131 90.275V144.848c36.208 13.92 61.915 49.057 61.98 90.256-.065 41.212-25.772 76.322-61.98 90.27z"/></svg>
  <svg xmlns="http://www.w3.org/2000/svg" width="122" height="65" viewBox="0 0 170 170" id="single-apple" y="560"><path d="m150.37 130.25c-2.45 5.66-5.35 10.87-8.71 15.66-4.58 6.53-8.33 11.05-11.22 13.56-4.48 4.12-9.28 6.23-14.42 6.35-3.69 0-8.14-1.05-13.32-3.18-5.197-2.12-9.973-3.17-14.34-3.17-4.58 0-9.492 1.05-14.746 3.17-5.262 2.13-9.501 3.24-12.742 3.35-4.929 0.21-9.842-1.96-14.746-6.52-3.13-2.73-7.045-7.41-11.735-14.04-5.032-7.08-9.169-15.29-12.41-24.65-3.471-10.11-5.211-19.9-5.211-29.378 0-10.857 2.346-20.221 7.045-28.068 3.693-6.303 8.606-11.275 14.755-14.925s12.793-5.51 19.948-5.629c3.915 0 9.049 1.211 15.429 3.591 6.362 2.388 10.447 3.599 12.238 3.599 1.339 0 5.877-1.416 13.57-4.239 7.275-2.618 13.415-3.702 18.445-3.275 13.63 1.1 23.87 6.473 30.68 16.153-12.19 7.386-18.22 17.731-18.1 31.002 0.11 10.337 3.86 18.939 11.23 25.769 3.34 3.17 7.07 5.62 11.22 7.36-0.9 2.61-1.85 5.11-2.86 7.51zm-31.26-123.01c0 8.1021-2.96 15.667-8.86 22.669-7.12 8.324-15.732 13.134-25.071 12.375-0.119-0.972-0.188-1.995-0.188-3.07 0-7.778 3.386-16.102 9.399-22.908 3.002-3.446 6.82-6.3113 11.45-8.597 4.62-2.2516 8.99-3.4968 13.1-3.71 0.12 1.0831 0.17 2.1663 0.17 3.2409z"/>
</svg>
</svg>
